<svg xmlns="http://www.w3.org/2000/svg" xmlns:xlink="http://www.w3.org/1999/xlink" version="1.1" id="Layer_1" x="0px" y="0px" width="96px" height="96px" viewBox="0 0 96 96" enable-background="new 0 0 96 96" xml:space="preserve">
<path d="M77.988,50.527l-28-16c-1.232-0.704-2.74-0.704-3.968,0l-28,16c-1.916,1.089-2.584,3.541-1.488,5.457  c1.092,1.916,3.54,2.584,5.456,1.483l26.016-14.86l26.016,14.86C74.641,57.828,75.328,58,76,58c1.393,0,2.744-0.729,3.477-2.016  C80.572,54.072,79.908,51.624,77.988,50.527z"/>
<path d="M48,0C21.492,0,0,21.492,0,48c0,26.504,21.492,48,48,48s48-21.496,48-48C96,21.492,74.508,0,48,0z M48,88  C25.944,88,8,70.057,8,48C8,25.944,25.944,8,48,8c22.057,0,40,17.944,40,40C88,70.057,70.057,88,48,88z"/>
</svg>